<svg xmlns="http://www.w3.org/2000/svg" width="169.453" height="41.3" viewBox="0 0 169.453 41.3">
  <g id="Group_1" data-name="Group 1" transform="translate(-0.537 -4)">
    <path id="FIRSTRULE" d="M1.5-11.1a13.385,13.385,0,0,1,.7-4.65A8,8,0,0,1,4.14-18.81a7.221,7.221,0,0,1,2.865-1.68A11.675,11.675,0,0,1,10.5-21h7.8v3.6H11.1a7.177,7.177,0,0,0-1.935.255,4.322,4.322,0,0,0-1.62.84,4.666,4.666,0,0,0-1.185,1.56,6.8,6.8,0,0,0-.6,2.445H18.3v3.6H5.7V0H1.5ZM21.3-21h4.2V0H21.3Zm7.8,0H41.55a10.035,10.035,0,0,1,2.61.33,5.908,5.908,0,0,1,2.16,1.065,4.911,4.911,0,0,1,1.455,1.95A7.438,7.438,0,0,1,48.3-14.7a8.744,8.744,0,0,1-.36,2.655,5.658,5.658,0,0,1-1.005,1.9A4.779,4.779,0,0,1,45.4-8.91a7.533,7.533,0,0,1-1.9.66L48.27,0H43.41L38.97-8.1H33.3V0H29.1Zm12.45,9.3a2.668,2.668,0,0,0,1.8-.645A3,3,0,0,0,44.1-14.7a2.551,2.551,0,0,0-.75-2.1,2.792,2.792,0,0,0-1.8-.6H33.3v5.7ZM51.6-3.6H62.55a3.563,3.563,0,0,0,2.01-.555A2.213,2.213,0,0,0,65.4-6.15a2.218,2.218,0,0,0-.84-1.98,3.494,3.494,0,0,0-2.01-.57h-5.1a10.516,10.516,0,0,1-2.67-.315,5.054,5.054,0,0,1-2.04-1.035,4.6,4.6,0,0,1-1.29-1.9,8.188,8.188,0,0,1-.45-2.9,8.288,8.288,0,0,1,.45-2.925,4.6,4.6,0,0,1,1.29-1.905,4.91,4.91,0,0,1,2.04-1.02,11.016,11.016,0,0,1,2.67-.3H69v3.6H58.05a3.563,3.563,0,0,0-2.01.555,2.213,2.213,0,0,0-.84,2,2.218,2.218,0,0,0,.84,1.98,3.494,3.494,0,0,0,2.01.57h5.1a10.516,10.516,0,0,1,2.67.315,5.054,5.054,0,0,1,2.04,1.035,4.6,4.6,0,0,1,1.29,1.905A8.188,8.188,0,0,1,69.6-6.15a8.262,8.262,0,0,1-.45,2.94,4.614,4.614,0,0,1-1.29,1.89A4.91,4.91,0,0,1,65.82-.3a11.015,11.015,0,0,1-2.67.3H51.6ZM78.33-17.4h-7.5V-21h19.2v3.6h-7.5V0h-4.2Z" transform="translate(0 25)" fill="#027bca"/>
    <path id="Telecom_Energy_Solutions" data-name="Telecom &amp; Energy Solutions" d="M2.829-6.67H-.046V-8.05h7.36v1.38H4.439V0H2.829ZM10.281,0a3.649,3.649,0,0,1-1.15-.178,2.333,2.333,0,0,1-.943-.587A2.874,2.874,0,0,1,7.55-1.828,4.831,4.831,0,0,1,7.314-3.45,4.831,4.831,0,0,1,7.55-5.072a2.874,2.874,0,0,1,.638-1.064,2.333,2.333,0,0,1,.943-.587,3.649,3.649,0,0,1,1.15-.178h2.564v1.3H10.476a2.063,2.063,0,0,0-.563.075,1.32,1.32,0,0,0-.477.247,1.431,1.431,0,0,0-.362.46,2.371,2.371,0,0,0-.219.713h3.99v1.311H8.855a2.382,2.382,0,0,0,.219.724,1.431,1.431,0,0,0,.362.46,1.251,1.251,0,0,0,.477.242,2.225,2.225,0,0,0,.563.069h2.369V0Zm3.944-9.2H15.72V0H14.225Zm5.5,9.2a3.649,3.649,0,0,1-1.15-.178,2.333,2.333,0,0,1-.943-.587,2.874,2.874,0,0,1-.638-1.064,4.831,4.831,0,0,1-.236-1.622,4.831,4.831,0,0,1,.236-1.622,2.874,2.874,0,0,1,.638-1.064,2.333,2.333,0,0,1,.943-.587,3.649,3.649,0,0,1,1.15-.178h2.564v1.3H19.918a2.063,2.063,0,0,0-.563.075,1.32,1.32,0,0,0-.477.247,1.431,1.431,0,0,0-.362.46,2.371,2.371,0,0,0-.219.713h3.99v1.311H18.3a2.382,2.382,0,0,0,.219.724,1.431,1.431,0,0,0,.362.46,1.251,1.251,0,0,0,.477.242,2.225,2.225,0,0,0,.563.069h2.369V0Zm6.566,0a3.649,3.649,0,0,1-1.15-.178A2.333,2.333,0,0,1,24.2-.765a2.874,2.874,0,0,1-.638-1.064,4.831,4.831,0,0,1-.236-1.622,4.831,4.831,0,0,1,.236-1.622A2.874,2.874,0,0,1,24.2-6.135a2.333,2.333,0,0,1,.943-.587,3.649,3.649,0,0,1,1.15-.178h2.564v1.3H26.484a2.007,2.007,0,0,0-.65.1,1.246,1.246,0,0,0-.529.351,1.774,1.774,0,0,0-.357.661,3.45,3.45,0,0,0-.132,1.035,3.45,3.45,0,0,0,.132,1.035,1.774,1.774,0,0,0,.357.661,1.246,1.246,0,0,0,.529.351,2.007,2.007,0,0,0,.65.1h2.369V0Zm3.484-3.45a4.743,4.743,0,0,1,.265-1.691,2.994,2.994,0,0,1,.719-1.121,2.681,2.681,0,0,1,1.064-.621,4.388,4.388,0,0,1,1.311-.19,4.348,4.348,0,0,1,1.3.19,2.729,2.729,0,0,1,1.069.621,3.014,3.014,0,0,1,.73,1.121A4.652,4.652,0,0,1,36.5-3.45a4.652,4.652,0,0,1-.27,1.691A3.014,3.014,0,0,1,35.5-.638a2.729,2.729,0,0,1-1.069.621,4.348,4.348,0,0,1-1.3.19,4.388,4.388,0,0,1-1.311-.19,2.681,2.681,0,0,1-1.064-.621,2.994,2.994,0,0,1-.719-1.121A4.743,4.743,0,0,1,29.773-3.45Zm3.358,2.323a2.224,2.224,0,0,0,.719-.115,1.456,1.456,0,0,0,.592-.38,1.871,1.871,0,0,0,.4-.713,3.569,3.569,0,0,0,.15-1.116,3.569,3.569,0,0,0-.15-1.116,1.871,1.871,0,0,0-.4-.713,1.456,1.456,0,0,0-.592-.379,2.224,2.224,0,0,0-.719-.115,2.224,2.224,0,0,0-.719.115,1.456,1.456,0,0,0-.592.379,1.871,1.871,0,0,0-.4.713,3.569,3.569,0,0,0-.149,1.116,3.569,3.569,0,0,0,.149,1.116,1.871,1.871,0,0,0,.4.713,1.456,1.456,0,0,0,.592.38A2.224,2.224,0,0,0,33.132-1.127Zm4.4-5.773h6.348a3.461,3.461,0,0,1,.972.132,2.025,2.025,0,0,1,.8.443,2.093,2.093,0,0,1,.541.811,3.376,3.376,0,0,1,.2,1.225V0H44.9V-4.289a1.683,1.683,0,0,0-.1-.615,1.123,1.123,0,0,0-.259-.4.952.952,0,0,0-.38-.224,1.558,1.558,0,0,0-.472-.069h-.978V0H41.216V-5.6H39.031V0h-1.5ZM53.291-2.185a2.187,2.187,0,0,1,.293-1.2,1.908,1.908,0,0,1,.8-.7,1.784,1.784,0,0,1-.632-.684,2.321,2.321,0,0,1-.23-1.1,2.36,2.36,0,0,1,.2-1.035,1.774,1.774,0,0,1,.558-.673,2.262,2.262,0,0,1,.822-.368,4.4,4.4,0,0,1,1.006-.109h2.818v1.38H56.108a1.107,1.107,0,0,0-.69.218.9.9,0,0,0-.287.759.894.894,0,0,0,.287.765,1.128,1.128,0,0,0,.69.213h1.208v1.38H55.878a1.053,1.053,0,0,0-.69.236,1.012,1.012,0,0,0-.287.822,1.539,1.539,0,0,0,.075.517.8.8,0,0,0,.207.328.773.773,0,0,0,.31.173,1.377,1.377,0,0,0,.385.052H56.4a2.389,2.389,0,0,0,.782-.127,1.574,1.574,0,0,0,.65-.431,2.18,2.18,0,0,0,.448-.816,4.65,4.65,0,0,0,.19-1.282v-.851h1.61V0h-1.61V-.886A2.755,2.755,0,0,1,57.3-.069a4.157,4.157,0,0,1-1.426.241A4.19,4.19,0,0,1,54.872.057a2.179,2.179,0,0,1-.822-.391,1.851,1.851,0,0,1-.558-.73A2.767,2.767,0,0,1,53.291-2.185ZM70.311,0a4.141,4.141,0,0,1-1.34-.213,2.812,2.812,0,0,1-1.1-.684,3.241,3.241,0,0,1-.742-1.242,5.739,5.739,0,0,1-.27-1.886,5.739,5.739,0,0,1,.27-1.886,3.241,3.241,0,0,1,.742-1.242,2.812,2.812,0,0,1,1.1-.684,4.141,4.141,0,0,1,1.34-.213H73.3v1.38h-2.76a2.524,2.524,0,0,0-.713.1,1.673,1.673,0,0,0-.6.322,1.852,1.852,0,0,0-.46.6,2.836,2.836,0,0,0-.259.937h4.8v1.38h-4.8a2.836,2.836,0,0,0,.259.937,1.852,1.852,0,0,0,.46.6,1.673,1.673,0,0,0,.6.322,2.524,2.524,0,0,0,.713.1H73.3V0Zm3.933-6.9h3.128a4.826,4.826,0,0,1,1.15.132,2.493,2.493,0,0,1,.943.443,2.173,2.173,0,0,1,.638.811,2.86,2.86,0,0,1,.236,1.225V0h-1.5V-4.289a1.293,1.293,0,0,0-.132-.615,1.129,1.129,0,0,0-.357-.4,1.5,1.5,0,0,0-.529-.224,2.937,2.937,0,0,0-.65-.069H75.739V0H74.244ZM84.226,0a3.649,3.649,0,0,1-1.15-.178,2.333,2.333,0,0,1-.943-.587,2.874,2.874,0,0,1-.638-1.064,4.831,4.831,0,0,1-.236-1.622,4.831,4.831,0,0,1,.236-1.622,2.874,2.874,0,0,1,.638-1.064,2.333,2.333,0,0,1,.943-.587,3.649,3.649,0,0,1,1.15-.178h2.565v1.3H84.422a2.063,2.063,0,0,0-.563.075,1.32,1.32,0,0,0-.477.247,1.431,1.431,0,0,0-.362.46,2.371,2.371,0,0,0-.218.713h3.991v1.311H82.8a2.382,2.382,0,0,0,.218.724,1.431,1.431,0,0,0,.362.46,1.251,1.251,0,0,0,.477.242,2.225,2.225,0,0,0,.563.069h2.369V0Zm3.829-4.289a2.86,2.86,0,0,1,.236-1.225,2.173,2.173,0,0,1,.638-.811,2.493,2.493,0,0,1,.943-.443,4.826,4.826,0,0,1,1.15-.132H93.23v2.76h-1.5V-5.6h-.517a2.937,2.937,0,0,0-.65.069,1.5,1.5,0,0,0-.529.224,1.129,1.129,0,0,0-.356.4,1.293,1.293,0,0,0-.132.615V0h-1.5ZM97.658,1a1.558,1.558,0,0,0,.857-.224A.849.849,0,0,0,98.866,0H97a3.649,3.649,0,0,1-1.15-.178,2.333,2.333,0,0,1-.943-.587,2.874,2.874,0,0,1-.638-1.064,4.831,4.831,0,0,1-.236-1.622,4.831,4.831,0,0,1,.236-1.622,2.874,2.874,0,0,1,.638-1.064,2.333,2.333,0,0,1,.943-.587A3.649,3.649,0,0,1,97-6.9h3.358V0a2.872,2.872,0,0,1-.178,1.081,1.838,1.838,0,0,1-.489.707,1.9,1.9,0,0,1-.724.391,3.149,3.149,0,0,1-.886.121H94.5V1Zm1.208-2.3V-5.6H97.2a2.007,2.007,0,0,0-.65.1,1.246,1.246,0,0,0-.529.351,1.774,1.774,0,0,0-.356.661A3.45,3.45,0,0,0,95.53-3.45a3.45,3.45,0,0,0,.132,1.035,1.774,1.774,0,0,0,.356.661,1.246,1.246,0,0,0,.529.351,2.007,2.007,0,0,0,.65.1ZM104.7,1a1.558,1.558,0,0,0,.857-.224A.849.849,0,0,0,105.9,0H104.04a4.407,4.407,0,0,1-1.115-.132,2.146,2.146,0,0,1-.868-.443,2.006,2.006,0,0,1-.558-.811,3.376,3.376,0,0,1-.2-1.225V-6.9h1.5v4.29a1.22,1.22,0,0,0,.374,1.023,1.714,1.714,0,0,0,1.064.288H105.9V-6.9H107.4V0a2.872,2.872,0,0,1-.178,1.081,1.838,1.838,0,0,1-.489.707,1.9,1.9,0,0,1-.724.391,3.149,3.149,0,0,1-.886.121h-3.358V1Zm9.89-2.38h4.2a1.366,1.366,0,0,0,.771-.213.848.848,0,0,0,.322-.765.85.85,0,0,0-.322-.759,1.339,1.339,0,0,0-.771-.218h-1.955a4.031,4.031,0,0,1-1.023-.121,1.937,1.937,0,0,1-.782-.4,1.764,1.764,0,0,1-.494-.73,3.139,3.139,0,0,1-.173-1.11,3.177,3.177,0,0,1,.173-1.121,1.764,1.764,0,0,1,.494-.73,1.882,1.882,0,0,1,.782-.391,4.223,4.223,0,0,1,1.023-.115h4.427v1.38h-4.2a1.366,1.366,0,0,0-.771.213.848.848,0,0,0-.322.765.85.85,0,0,0,.322.759,1.339,1.339,0,0,0,.771.218h1.955a4.031,4.031,0,0,1,1.023.121,1.937,1.937,0,0,1,.782.4,1.764,1.764,0,0,1,.494.73,3.139,3.139,0,0,1,.173,1.11,3.167,3.167,0,0,1-.173,1.127,1.769,1.769,0,0,1-.494.725,1.882,1.882,0,0,1-.782.391A4.223,4.223,0,0,1,119.014,0h-4.428Zm7.763-2.07a4.743,4.743,0,0,1,.264-1.691,2.994,2.994,0,0,1,.719-1.121,2.681,2.681,0,0,1,1.064-.621,4.388,4.388,0,0,1,1.311-.19,4.348,4.348,0,0,1,1.3.19,2.729,2.729,0,0,1,1.069.621,3.014,3.014,0,0,1,.73,1.121,4.652,4.652,0,0,1,.27,1.691,4.652,4.652,0,0,1-.27,1.691,3.014,3.014,0,0,1-.73,1.121,2.729,2.729,0,0,1-1.069.621,4.348,4.348,0,0,1-1.3.19,4.388,4.388,0,0,1-1.311-.19,2.681,2.681,0,0,1-1.064-.621,2.994,2.994,0,0,1-.719-1.121A4.743,4.743,0,0,1,122.349-3.45Zm3.358,2.323a2.224,2.224,0,0,0,.719-.115,1.456,1.456,0,0,0,.592-.38,1.871,1.871,0,0,0,.4-.713,3.569,3.569,0,0,0,.15-1.116,3.569,3.569,0,0,0-.15-1.116,1.871,1.871,0,0,0-.4-.713,1.456,1.456,0,0,0-.592-.379,2.224,2.224,0,0,0-.719-.115,2.224,2.224,0,0,0-.719.115,1.456,1.456,0,0,0-.592.379,1.871,1.871,0,0,0-.4.713,3.569,3.569,0,0,0-.15,1.116,3.569,3.569,0,0,0,.15,1.116,1.871,1.871,0,0,0,.4.713,1.456,1.456,0,0,0,.592.38A2.224,2.224,0,0,0,125.707-1.127Zm4.4-8.073h1.495V0h-1.495Zm2.76,2.3h1.5v4.29A1.293,1.293,0,0,0,134.5-2a1.129,1.129,0,0,0,.356.4,1.5,1.5,0,0,0,.529.224,2.937,2.937,0,0,0,.65.069h1.438V-6.9h1.495V0h-3.128a4.826,4.826,0,0,1-1.15-.132,2.493,2.493,0,0,1-.943-.443,2.173,2.173,0,0,1-.638-.811,2.86,2.86,0,0,1-.236-1.225Zm8.28,1.265H140v-1.3h1.15V-8.625h1.5v1.691h1.61v1.3h-1.61V-2.07a.638.638,0,0,0,.287.6,1.353,1.353,0,0,0,.69.167h.633V0h-.828a3.149,3.149,0,0,1-.885-.121,1.9,1.9,0,0,1-.725-.391,1.838,1.838,0,0,1-.489-.707,2.872,2.872,0,0,1-.178-1.081ZM145.406-9.2H146.9v1.495h-1.495Zm0,2.3H146.9V0h-1.495Zm2.53,3.45a4.743,4.743,0,0,1,.264-1.691,2.994,2.994,0,0,1,.719-1.121,2.681,2.681,0,0,1,1.064-.621,4.388,4.388,0,0,1,1.311-.19,4.348,4.348,0,0,1,1.3.19,2.729,2.729,0,0,1,1.07.621,3.014,3.014,0,0,1,.73,1.121,4.652,4.652,0,0,1,.27,1.691,4.652,4.652,0,0,1-.27,1.691,3.014,3.014,0,0,1-.73,1.121,2.729,2.729,0,0,1-1.07.621,4.348,4.348,0,0,1-1.3.19,4.388,4.388,0,0,1-1.311-.19,2.681,2.681,0,0,1-1.064-.621A2.994,2.994,0,0,1,148.2-1.76,4.743,4.743,0,0,1,147.936-3.45Zm3.358,2.323a2.224,2.224,0,0,0,.719-.115,1.456,1.456,0,0,0,.592-.38,1.871,1.871,0,0,0,.4-.713,3.57,3.57,0,0,0,.149-1.116,3.57,3.57,0,0,0-.149-1.116,1.871,1.871,0,0,0-.4-.713,1.456,1.456,0,0,0-.592-.379,2.224,2.224,0,0,0-.719-.115,2.224,2.224,0,0,0-.719.115,1.456,1.456,0,0,0-.592.379,1.871,1.871,0,0,0-.4.713,3.569,3.569,0,0,0-.15,1.116,3.569,3.569,0,0,0,.15,1.116,1.871,1.871,0,0,0,.4.713,1.456,1.456,0,0,0,.592.38A2.224,2.224,0,0,0,151.294-1.127ZM155.7-6.9h3.128a4.826,4.826,0,0,1,1.15.132,2.493,2.493,0,0,1,.943.443,2.173,2.173,0,0,1,.638.811,2.86,2.86,0,0,1,.236,1.225V0h-1.5V-4.289a1.293,1.293,0,0,0-.132-.615,1.129,1.129,0,0,0-.356-.4,1.5,1.5,0,0,0-.529-.224,2.937,2.937,0,0,0-.65-.069h-1.437V0H155.7Zm7.383,5.6h3.611a1.236,1.236,0,0,0,.661-.167.615.615,0,0,0,.27-.569.637.637,0,0,0-.27-.6,1.271,1.271,0,0,0-.661-.161h-1.679a3.484,3.484,0,0,1-.88-.1,1.628,1.628,0,0,1-.673-.345,1.559,1.559,0,0,1-.425-.638,2.808,2.808,0,0,1-.15-.983,2.721,2.721,0,0,1,.15-.966,1.517,1.517,0,0,1,.425-.627,1.666,1.666,0,0,1,.673-.339,3.484,3.484,0,0,1,.88-.1h3.807v1.3h-3.611a1.267,1.267,0,0,0-.667.167.611.611,0,0,0-.276.569.633.633,0,0,0,.276.6,1.3,1.3,0,0,0,.667.161h1.679a3.484,3.484,0,0,1,.88.1,1.628,1.628,0,0,1,.673.345,1.559,1.559,0,0,1,.425.638,2.808,2.808,0,0,1,.15.983,2.721,2.721,0,0,1-.15.966,1.517,1.517,0,0,1-.425.627,1.666,1.666,0,0,1-.673.339,3.484,3.484,0,0,1-.88.1h-3.807Z" transform="translate(0.583 43)" fill="silver"/>
    <path id="FIRSTRULE-2" data-name="FIRSTRULE" d="M1.8-21H14.25a10.035,10.035,0,0,1,2.61.33,5.908,5.908,0,0,1,2.16,1.065,4.911,4.911,0,0,1,1.455,1.95A7.438,7.438,0,0,1,21-14.7a8.744,8.744,0,0,1-.36,2.655,5.658,5.658,0,0,1-1.005,1.9A4.779,4.779,0,0,1,18.1-8.91a7.533,7.533,0,0,1-1.9.66L20.97,0H16.11L11.67-8.1H6V0H1.8Zm12.45,9.3a2.668,2.668,0,0,0,1.8-.645A3,3,0,0,0,16.8-14.7a2.551,2.551,0,0,0-.75-2.1,2.792,2.792,0,0,0-1.8-.6H6v5.7ZM23.49-21h4.2V-8.7a7.282,7.282,0,0,0,.42,2.655,4.346,4.346,0,0,0,1.155,1.71,4.292,4.292,0,0,0,1.71.915,7.9,7.9,0,0,0,2.115.27,7.783,7.783,0,0,0,2.085-.27,4.292,4.292,0,0,0,1.71-.915,4.481,4.481,0,0,0,1.17-1.71A7.055,7.055,0,0,0,38.49-8.7V-21h4.2V-8.7a10.941,10.941,0,0,1-.765,4.365,7.35,7.35,0,0,1-2.07,2.82A7.861,7.861,0,0,1,36.81,0a14.813,14.813,0,0,1-3.72.45A14.991,14.991,0,0,1,29.355,0,7.855,7.855,0,0,1,26.3-1.515a7.22,7.22,0,0,1-2.055-2.82A11.135,11.135,0,0,1,23.49-8.7Zm22.2,0h4.2V-8.4a5.5,5.5,0,0,0,.42,2.295,3.774,3.774,0,0,0,1.155,1.47,4.638,4.638,0,0,0,1.725.795,8.889,8.889,0,0,0,2.1.24h5.4V0h-5.4a15.818,15.818,0,0,1-3.72-.42,8.126,8.126,0,0,1-3.045-1.41,6.936,6.936,0,0,1-2.07-2.595A9.208,9.208,0,0,1,45.69-8.4ZM71.19,0a10.8,10.8,0,0,1-3.5-.555A7.337,7.337,0,0,1,64.83-2.34,8.454,8.454,0,0,1,62.9-5.58a14.972,14.972,0,0,1-.7-4.92,14.972,14.972,0,0,1,.7-4.92,8.454,8.454,0,0,1,1.935-3.24,7.337,7.337,0,0,1,2.865-1.785A10.8,10.8,0,0,1,71.19-21h7.8v3.6h-7.2a6.583,6.583,0,0,0-1.86.255,4.365,4.365,0,0,0-1.575.84,4.832,4.832,0,0,0-1.2,1.56A7.4,7.4,0,0,0,66.48-12.3H78.99v3.6H66.48a7.4,7.4,0,0,0,.675,2.445,4.832,4.832,0,0,0,1.2,1.56,4.365,4.365,0,0,0,1.575.84,6.583,6.583,0,0,0,1.86.255h7.2V0Z" transform="translate(91 25)" fill="#06b4e6"/>
  </g>
</svg>
